<?xml version="1.0" encoding="UTF-8"?>
<svg id="Layer_1" data-name="Layer 1" xmlns="http://www.w3.org/2000/svg" viewBox="0 0 1080 1080">
  <defs>
    <style>
      .cls-1 {
        fill: #40ff9f;
      }
    </style>
  </defs>
  <path class="cls-1" d="M877.97,351.72c-8.74-24.05-28.27-57.93-44.03-64.84-31.49-13.8-78.37-17.05-132.11-13.57-21.24,1.37-43.56,3.79-66.43,7.03-67.14,9.51-138.96,26.05-202.14,43.63-22.43-34.96-40.56-70.07-52.96-108.09-3.85-11.8-16.71-18.08-28.39-13.85-24.05,8.71-58.08,28.29-65,44.09-13.8,31.48-17.08,78.35-13.62,132.07,1.35,21.25,3.77,43.57,7,66.44,9.5,67.14,26.03,138.98,43.61,202.15-34.94,22.41-70.02,40.53-108.02,52.93-11.81,3.85-18.08,16.7-13.85,28.38,8.7,24.06,28.29,58.08,44.09,65.01,31.48,13.8,78.33,17.08,132.04,13.62,21.28-1.35,43.63-3.77,66.53-7.01,68.46-9.69,141.81-26.69,205.88-44.66,19.64,31.47,36.01,65.84,49.23,108.79,3.69,11.98,16.7,18.41,28.48,14.13,24.05-8.74,57.94-28.27,64.85-44.03,13.79-31.48,17.05-78.35,13.57-132.08-1.37-21.27-3.79-43.62-7.04-66.52-9.7-68.46-26.71-141.8-44.68-205.86,31.49-19.66,65.87-36.05,108.86-49.28,11.98-3.69,18.4-16.7,14.13-28.48ZM661.35,318.66c19.88-1.26,38.09-1.63,54.04-1.28,1.46.03,2.86.19,4.19.46,16.38,3.3,22.62,23.53,12.29,35.64-1.58,1.84-3.54,3.5-5.9,4.88-.12.07-.23.13-.34.2-11.15,6.48-22.02,12.96-32.61,19.44-54.66,33.42-102.17,66.76-144.92,98.77-34.06-43.07-65.46-81.81-92.4-119.7,72.96-23.3,146.66-34.72,205.65-38.41ZM318.7,418.64c-1.25-19.85-1.64-38.03-1.3-53.96.03-1.49.19-2.91.48-4.26,3.33-16.32,23.49-22.56,35.59-12.28,1.86,1.58,3.52,3.56,4.91,5.94.07.12.14.23.21.35,6.53,11.24,12.98,22.11,19.33,32.61,35.31,58.35,67.89,105.64,97.82,145.68-42.63,33.72-81.04,64.82-118.61,91.54-23.22-72.86-34.69-146.59-38.43-205.62ZM418.65,761.31c-19.85,1.25-38.03,1.64-53.97,1.3-1.51-.03-2.96-.2-4.33-.49-16.24-3.37-22.45-23.43-12.26-35.52,1.59-1.88,3.58-3.58,5.99-4.98.12-.07.23-.13.35-.2,11.25-6.54,22.12-12.99,32.63-19.34,58.16-35.19,105.33-67.68,145.28-97.54,36.9,44.76,68.7,80.34,95.59,117.15-74.04,24.02-149.25,35.81-209.28,39.62ZM761.35,661.33c1.25,19.89,1.62,38.11,1.28,54.07-.03,1.48-.19,2.9-.48,4.24-3.33,16.31-23.47,22.54-35.57,12.29-1.87-1.59-3.55-3.57-4.94-5.96-.06-.11-.13-.23-.19-.34-6.49-11.16-12.98-22.04-19.47-32.65-33.31-54.46-66.53-101.84-98.45-144.47,45.26-37.28,81.12-69.38,118.23-96.49,24.08,74.15,35.82,149.33,39.59,209.31Z"/>
</svg>